<mxfile host="app.diagrams.net" modified="2022-10-18T03:11:20.107Z" agent="5.0 (Macintosh; Intel Mac OS X 10_15_7) AppleWebKit/537.36 (KHTML, like Gecko) Chrome/106.0.0.0 Safari/537.36" etag="snPcR8a7ee3ecobsYrNs" version="20.4.1" type="github">
  <diagram id="YqrcP8T6rk7wTmhqX3zY" name="PÃ¡gina-1">
    <mxGraphModel dx="1426" dy="744" grid="1" gridSize="10" guides="1" tooltips="1" connect="1" arrows="1" fold="1" page="1" pageScale="1" pageWidth="827" pageHeight="1169" math="0" shadow="0">
      <root>
        <mxCell id="0" />
        <mxCell id="1" parent="0" />
        <mxCell id="1K9EJVV-MSmfmisraFnw-19" value="" style="group" parent="1" vertex="1" connectable="0">
          <mxGeometry x="374" y="220" width="126" height="50" as="geometry" />
        </mxCell>
        <mxCell id="1K9EJVV-MSmfmisraFnw-14" value="serviceCustomer" style="rounded=0;whiteSpace=wrap;html=1;" parent="1K9EJVV-MSmfmisraFnw-19" vertex="1">
          <mxGeometry width="126" height="50" as="geometry" />
        </mxCell>
        <mxCell id="1K9EJVV-MSmfmisraFnw-23" value="" style="group" parent="1" vertex="1" connectable="0">
          <mxGeometry x="374" y="300" width="126" height="50" as="geometry" />
        </mxCell>
        <mxCell id="1K9EJVV-MSmfmisraFnw-24" value="serviceProduct" style="rounded=0;whiteSpace=wrap;html=1;" parent="1K9EJVV-MSmfmisraFnw-23" vertex="1">
          <mxGeometry width="126" height="50" as="geometry" />
        </mxCell>
        <mxCell id="1K9EJVV-MSmfmisraFnw-29" value="" style="group" parent="1" vertex="1" connectable="0">
          <mxGeometry x="374" y="440" width="126" height="50" as="geometry" />
        </mxCell>
        <mxCell id="1K9EJVV-MSmfmisraFnw-30" value="serviceTransaction" style="rounded=0;whiteSpace=wrap;html=1;" parent="1K9EJVV-MSmfmisraFnw-29" vertex="1">
          <mxGeometry width="126" height="50" as="geometry" />
        </mxCell>
        <mxCell id="1K9EJVV-MSmfmisraFnw-33" value="" style="group" parent="1" vertex="1" connectable="0">
          <mxGeometry x="374" y="366" width="126" height="50" as="geometry" />
        </mxCell>
        <mxCell id="1K9EJVV-MSmfmisraFnw-27" value="serviceCustomerProduct" style="rounded=0;whiteSpace=wrap;html=1;" parent="1K9EJVV-MSmfmisraFnw-33" vertex="1">
          <mxGeometry width="126" height="50" as="geometry" />
        </mxCell>
        <mxCell id="1K9EJVV-MSmfmisraFnw-35" style="edgeStyle=orthogonalEdgeStyle;rounded=0;orthogonalLoop=1;jettySize=auto;html=1;fillColor=#dae8fc;strokeColor=#6c8ebf;" parent="1" source="1K9EJVV-MSmfmisraFnw-14" edge="1">
          <mxGeometry relative="1" as="geometry">
            <mxPoint x="720" y="245" as="targetPoint" />
            <Array as="points">
              <mxPoint x="708" y="245" />
            </Array>
          </mxGeometry>
        </mxCell>
        <mxCell id="1K9EJVV-MSmfmisraFnw-60" style="edgeStyle=orthogonalEdgeStyle;rounded=0;orthogonalLoop=1;jettySize=auto;html=1;fillColor=#dae8fc;strokeColor=#6c8ebf;" parent="1" source="1K9EJVV-MSmfmisraFnw-30" edge="1">
          <mxGeometry relative="1" as="geometry">
            <mxPoint x="720" y="465" as="targetPoint" />
            <Array as="points">
              <mxPoint x="720" y="465" />
            </Array>
          </mxGeometry>
        </mxCell>
        <mxCell id="1K9EJVV-MSmfmisraFnw-61" style="edgeStyle=orthogonalEdgeStyle;rounded=0;orthogonalLoop=1;jettySize=auto;html=1;fillColor=#dae8fc;strokeColor=#6c8ebf;" parent="1" source="1K9EJVV-MSmfmisraFnw-27" edge="1">
          <mxGeometry relative="1" as="geometry">
            <mxPoint x="720" y="391" as="targetPoint" />
            <Array as="points">
              <mxPoint x="720" y="391" />
            </Array>
          </mxGeometry>
        </mxCell>
        <mxCell id="1K9EJVV-MSmfmisraFnw-62" style="edgeStyle=orthogonalEdgeStyle;rounded=0;orthogonalLoop=1;jettySize=auto;html=1;fillColor=#dae8fc;strokeColor=#6c8ebf;" parent="1" source="1K9EJVV-MSmfmisraFnw-24" edge="1">
          <mxGeometry relative="1" as="geometry">
            <mxPoint x="720" y="330" as="targetPoint" />
            <Array as="points">
              <mxPoint x="720" y="330" />
            </Array>
          </mxGeometry>
        </mxCell>
        <mxCell id="1K9EJVV-MSmfmisraFnw-64" style="edgeStyle=orthogonalEdgeStyle;rounded=0;orthogonalLoop=1;jettySize=auto;html=1;fillColor=#d5e8d4;strokeColor=#82b366;" parent="1" target="1K9EJVV-MSmfmisraFnw-24" edge="1">
          <mxGeometry relative="1" as="geometry">
            <mxPoint x="300" y="314" as="sourcePoint" />
            <Array as="points">
              <mxPoint x="300" y="280" />
              <mxPoint x="437" y="280" />
            </Array>
          </mxGeometry>
        </mxCell>
        <mxCell id="1K9EJVV-MSmfmisraFnw-65" style="edgeStyle=orthogonalEdgeStyle;rounded=0;orthogonalLoop=1;jettySize=auto;html=1;fillColor=#d5e8d4;strokeColor=#82b366;" parent="1" target="1K9EJVV-MSmfmisraFnw-27" edge="1">
          <mxGeometry relative="1" as="geometry">
            <mxPoint x="300" y="366" as="sourcePoint" />
            <Array as="points">
              <mxPoint x="300" y="430" />
              <mxPoint x="437" y="430" />
            </Array>
          </mxGeometry>
        </mxCell>
        <mxCell id="1K9EJVV-MSmfmisraFnw-66" style="edgeStyle=orthogonalEdgeStyle;rounded=0;orthogonalLoop=1;jettySize=auto;html=1;entryX=0;entryY=0.75;entryDx=0;entryDy=0;fillColor=#d5e8d4;strokeColor=#82b366;" parent="1" target="1K9EJVV-MSmfmisraFnw-30" edge="1">
          <mxGeometry relative="1" as="geometry">
            <mxPoint x="280" y="366" as="sourcePoint" />
            <Array as="points">
              <mxPoint x="280" y="478" />
            </Array>
          </mxGeometry>
        </mxCell>
        <mxCell id="1K9EJVV-MSmfmisraFnw-67" style="edgeStyle=orthogonalEdgeStyle;rounded=0;orthogonalLoop=1;jettySize=auto;html=1;entryX=0;entryY=0.5;entryDx=0;entryDy=0;fillColor=#d5e8d4;strokeColor=#82b366;" parent="1" target="1K9EJVV-MSmfmisraFnw-14" edge="1">
          <mxGeometry relative="1" as="geometry">
            <mxPoint x="280" y="314" as="sourcePoint" />
            <Array as="points">
              <mxPoint x="280" y="245" />
            </Array>
          </mxGeometry>
        </mxCell>
        <mxCell id="1K9EJVV-MSmfmisraFnw-70" style="edgeStyle=orthogonalEdgeStyle;rounded=0;orthogonalLoop=1;jettySize=auto;html=1;entryX=1;entryY=0.75;entryDx=0;entryDy=0;fillColor=#f8cecc;strokeColor=#b85450;" parent="1" source="1K9EJVV-MSmfmisraFnw-27" target="1K9EJVV-MSmfmisraFnw-14" edge="1">
          <mxGeometry relative="1" as="geometry">
            <Array as="points">
              <mxPoint x="520" y="380" />
              <mxPoint x="520" y="257" />
            </Array>
          </mxGeometry>
        </mxCell>
        <mxCell id="1K9EJVV-MSmfmisraFnw-71" style="edgeStyle=orthogonalEdgeStyle;rounded=0;orthogonalLoop=1;jettySize=auto;html=1;entryX=0;entryY=0.5;entryDx=0;entryDy=0;fillColor=#f8cecc;strokeColor=#b85450;" parent="1" source="1K9EJVV-MSmfmisraFnw-27" target="1K9EJVV-MSmfmisraFnw-24" edge="1">
          <mxGeometry relative="1" as="geometry">
            <Array as="points">
              <mxPoint x="354" y="380" />
              <mxPoint x="354" y="325" />
            </Array>
          </mxGeometry>
        </mxCell>
        <mxCell id="1K9EJVV-MSmfmisraFnw-72" style="edgeStyle=orthogonalEdgeStyle;rounded=0;orthogonalLoop=1;jettySize=auto;html=1;entryX=1;entryY=0.75;entryDx=0;entryDy=0;fillColor=#fff2cc;strokeColor=#d6b656;" parent="1" source="1K9EJVV-MSmfmisraFnw-30" target="1K9EJVV-MSmfmisraFnw-27" edge="1">
          <mxGeometry relative="1" as="geometry">
            <Array as="points">
              <mxPoint x="520" y="450" />
              <mxPoint x="520" y="403" />
            </Array>
          </mxGeometry>
        </mxCell>
        <mxCell id="1K9EJVV-MSmfmisraFnw-74" style="edgeStyle=orthogonalEdgeStyle;rounded=0;orthogonalLoop=1;jettySize=auto;html=1;" parent="1" edge="1">
          <mxGeometry relative="1" as="geometry">
            <mxPoint x="160" y="340" as="sourcePoint" />
            <mxPoint x="260" y="340" as="targetPoint" />
            <Array as="points">
              <mxPoint x="200" y="340" />
              <mxPoint x="200" y="340" />
            </Array>
          </mxGeometry>
        </mxCell>
        <mxCell id="1K9EJVV-MSmfmisraFnw-75" value="FrontEnd" style="text;html=1;resizable=0;autosize=1;align=center;verticalAlign=middle;points=[];fillColor=#ffe6cc;strokeColor=#d79b00;rounded=0;dashed=1;" parent="1" vertex="1">
          <mxGeometry x="70" y="120" width="70" height="30" as="geometry" />
        </mxCell>
        <mxCell id="1K9EJVV-MSmfmisraFnw-83" value="" style="group" parent="1" vertex="1" connectable="0">
          <mxGeometry x="60" y="315" width="90" height="90" as="geometry" />
        </mxCell>
        <mxCell id="1K9EJVV-MSmfmisraFnw-79" value="" style="shape=image;html=1;verticalAlign=top;verticalLabelPosition=bottom;labelBackgroundColor=#ffffff;imageAspect=0;aspect=fixed;image=https://cdn2.iconfinder.com/data/icons/bitsies/128/Application-128.png;dashed=1;fillColor=none;" parent="1K9EJVV-MSmfmisraFnw-83" vertex="1">
          <mxGeometry x="15" width="60" height="60" as="geometry" />
        </mxCell>
        <mxCell id="1K9EJVV-MSmfmisraFnw-81" value="User" style="text;html=1;resizable=0;autosize=1;align=center;verticalAlign=middle;points=[];fillColor=none;strokeColor=none;rounded=0;dashed=1;" parent="1K9EJVV-MSmfmisraFnw-83" vertex="1">
          <mxGeometry x="20" y="60" width="50" height="30" as="geometry" />
        </mxCell>
        <mxCell id="2w82Q_bAyuArWZJhEHWo-1" value="BackEnd" style="text;html=1;resizable=0;autosize=1;align=center;verticalAlign=middle;points=[];fillColor=#ffe6cc;strokeColor=#d79b00;rounded=0;dashed=1;" vertex="1" parent="1">
          <mxGeometry x="400" y="120" width="70" height="30" as="geometry" />
        </mxCell>
        <mxCell id="2w82Q_bAyuArWZJhEHWo-2" value="Data" style="text;html=1;resizable=0;autosize=1;align=center;verticalAlign=middle;points=[];fillColor=#ffe6cc;strokeColor=#d79b00;rounded=0;dashed=1;" vertex="1" parent="1">
          <mxGeometry x="710" y="120" width="50" height="30" as="geometry" />
        </mxCell>
        <mxCell id="2w82Q_bAyuArWZJhEHWo-3" value="" style="shape=image;imageAspect=0;aspect=fixed;verticalLabelPosition=bottom;verticalAlign=top;fillColor=#FFD966;image=data:image/png,iVBORw0KGgoAAAANSUhEUgAAAOEAAADhCAMAAAAJbSJIAAAAz1BMVEX1hTb///+dUCX1hDL1gCr1gS32j030ehT0exr4rYD2jUf5vJr+9O/5hzf//Pr1fiP5uZX6xaf84dL71sP3nGT/+fSdTyT828n70r396t34pnT5tIz4rYT97+eXQACXTCT1ij/sgDSaShqZRhG0XimsWSjGaS3adTHr3deWPQD3oWzcxrz07enTtqrcdjHNbS6vdVnGn43n19D7zbPodh/SaBa6inTWu6+kXTjFnYurbU68jXj2l1rz18nZxr/GXxCmSwOzWR30cgCmY0C1gGf0v3nCAAAMmUlEQVR4nO3d+1+iShsA8GHURA3ZLOm2goKaplnpOW1bnT2X+v//pne43waYGWAA331+2k+LwLdn7owEhGMPUPUNlB6/hc2P38LmBy/h8HQyGV2eX11dnV9ejq4nk1NOFy5deDo6DL5fTNuyLIuyF6L579bJ/e3Z+fW45DsoUTi5+nYxRZR2p9MCuGh1Om3k7t8Pzifl3UY5wvFocNIV5TZeFoMiZ/dkMConmyUIR4OPNiEu6EQF+WMwKv52ChYOz3uySK3zlWL7++Ww2FsqUjg83LflDqPOjY7cvrkqElmccNSTc/NcpNwrrrgWJByfgYJ4LhKcFdRjFiK87tG3LFmB6uRNIYksQHj+IRaZPj864sl5DYSHvlx0+vxoyf2rioWHVok+2wgOFQrPp3KpPDvkaa6ymkM4+hDLzZ8bLfEkR5vDLBz3OPls4w1z38EqPBTa/WVHRz7jKpx88KiA4ZD71/yEA44F1I+WOOAkvO6nJrAj5onUss+URnrhWXoCO7fjU/YY36YSWdJIKxxfZNTA9jfqewjGt3b66eUP2kaVUjhqZTWhJQtRo3pJd0Y64aCbcf3yhQB06UoqlfCeoI8oXwjke5ozUghP+wRX5yEE7T5FZSQXXieselYgBK0O+UCVWHhJOE3iIkTdBvF8g1R4yG5jeApRe0M6bSQUnomEF+YmBKSdP5lwQAzkJwQi2ZWIhN/IgRyFQL4tSnhLAeQpBCIJkUBIk0G+QiATXCxbSFEHuQuBmD3zzxQe6ICchUDM7DSyhJek/WBFQtDNmmpkCK8pM8hfCOSMJ+TpwjGgXpDhLmyB9Kfj6cIP+iVD7kLQ+WAX9ugvV4EQtHusQtpmtCpheoOaIrymbUYrE4JuyipjsnBI38pUJmxNk/c2JAtvmK5VjRC0b+iFTJWwMiEQE58VJwlPWR+9VCQEctLiVJLwgvXhWVXCzgWd8MD89KwqIZATugy8cMz+eLAyIWjjR2944Q37A97qhB18e4oVjhjb0WqFQMQuE2OF0xyPeCsUtqakwrM8D+krFALsbgaMcJjnIpUKQQczeMMI812kUiHu4nHhmGlK4V+EacOEF4NcQiDGe4y48HvOrUCt5JDtqWpPTjkm38Xb8TXimHBS4l6g9nf7d5gvT6kRH57GhLclXr7zvZBSkhbxJEaF4xydfWZwEAI5WhOjwpw1PT14CGMtXUQ4LHXHIQ8haKUL2WdNJMFFGJ1FRYT9Ujcd8snhSZowz6SCILgIo1OMsLDka/MRdnopwjIbUsBLCORhovCq5L3NvISHRCHzAhthcBK2LpKEzGukpMFJGB6cBoXldoaAo/CQICy7kHIThlaHA8KcU1+SK3MSgu4YKyy7JeUolM+xwl7pF+YmDHb6ASHjKmmHPLxVDOJPMA6TgyunvnDCNibt3PTIw17PPCP/wD0jUbzGCA9sQ7bE53aFxIixbQj0F76Q8WlM1pakfHHJKAxURF/IWP3rmUPQiQtPGaeGNRWKXtHyhOesJb6eQv/bUZ6QdZHNrocT0C84WvmE/pKbJ7xnrYe2sJuyUM8UXeuuWFsa0LmPCVmfijrCwhd4cgr9Pt8VMu9NqKnQX/t2hexVuqZCb1TjCpknFnUVylcR4RnzbquaCttnEWH6d6hToq7Czm1EeMG6nF9Xobfg5gqnrGeqrXAaEbLX6JoKQTssHB6f0F3bd4Tsi8H1FU5CQvYdGE0R0n+/KXyiGgrdQY0jZB601VcojwoSirUVXoaEhGeaWhGax7nC0A/t48jvBnNeRxg6L6A5bURItobhJH4YCiHpZ+SDeXFIc17C7Yvuyj6LkDDIhV2a0zZTSPVGVjYhWT1sljBcD8na0maV0hzCb4OsoBTaO3snmee1H0YQ7g+N9Id/kQmtX8tQbGcFrdBaVb7uZpzVeXsS4WRd/otZSLCviE2YNWpwvhTDJtwcoXDzfyb8dYTCX2HhH0QfapLwj4jwT4ngQ00SShHh/viEf+5DwtXfRyf8exUSbo9QuA0L/zk64T9h4VAl+VSThEANr5cKxozgQ00SzgwhLNR2BMW0QUJpp0WET49HJnx8igjf/z0y4b/vEeGzcWRC4zki3JA0NQ0SzoxNRLha32UnsTlC6U5dRYRjdYkXtrt+/Gct0A3/C/zIuysx8EN7ZekQPC72W5GD57WFwePd304reJj94LoXPC7h4by0dLtDf0/U6wIrbGe8etHd0ihmLAhGt81lLds5y5utfvphSfsPpMWre4QnfNKxFTFL6D6SwXwRPhTRJcAs4Xk+4Ux3Owtf+Gw8HpHwzmtKfeHGmOOKaTOF0txrSn3hdq0dUQ619TYmFAzs0LSRQjQoNbwjfOGXjusvmimc6y8Y4YMBMQc3Ugig8YARrlQNM6xpohAVUm9EE/reE1QwrWkjhXMF+kcEhC86pjVtohBogWoYFG5ULT4NbqBQetTUjX9E8DukaxgfmzZRuIDrwCg5+D3gJz3eJTZPiNoZf1AqhIU/DBhraxoonEPjR+CIoHCrKlp0gtE84UxT1G3giNA7FZ50GB3XNE4oLWGokIaFP1QY7TAaJwQaDLakEeEQFdNIEpsmlJaokCa/20R412FkcNo0IYBQfw8dERauUDENJ7FhQpRCGBiTmhF5T9SnEqmJDROiWqh8ho+ICFFbE25OmyVEDSlUf4SPiL6RTkdJDPaJzRLOUAqVyBFR4bMBQwObRgnRcAb6i2xORIWow4DB0WmThGhEChU1672Jwk+URKWhQgWl8Gf0iJhwaybRb2waJDR7ivCQ1Ir4O2jfURL9xqZBQtTMQOM9dgTmPcJrCP2pMPGTmYw7iT2ZyfjbxfRPZtDEF4amvk7EhVZz6q9nTE/Sw7lCK+OwKYhEP/34vntcxnn9MvqoYRpSvHBoKMFymvHuA8rD/CA8nvS8ZhlVdLL3eQsParCcNiOsMqo+YDQ4ofBqJjHhmXA9w2xHofKKw2CFe7Ox0XZV3zZFoL4epXBPLBRe0DwxOlOsdZi3G1wGzhSOrcamMVXRqoSKgd9KgBdas6jGVEWrEsZmTRlCc9kNEQn22FQfVk8YWWAjEJrDUwiJdixWHJLVymAGpBlCYWOWUwhndSdKM+s+wyuIRELhyzA/qVQtyAyzrEHjK9GRLBSgVU7r3qAurDxAlr+dJ6zWVv5rTbT6CTSlWCUzUoT2+BRq2J1E9QhprllA3HiURCi8GPUmOkDMtJdUKHzqdSY6QP0z1ZAuHCtKfYnSQrNbmTx/Dxi1NjZxUTUHEw4wsasnE6KJlGK3qKBeaZTsbgIqa+yUiUIo/LD7DK1eoxtppmh2P5Ew3qYQCg82EcIajVGlnXNPqf0EqVD4aY9QazTTkO7sBEI1tsLNJPSJNZkv2vNBQiCRUHh3iXVoUiWnESUEkgmFn05d1KqvjF4VhGvM8i+z0G9uqi6pXgklBZIKUaehuCW1wm5DmrklVMnuJiiFwsYlQsweTV7ARzeBCn5tNJdQ2Bu6S5xXkkY/gVDXUyaEzEJh+2pAP428jZKfQGi8ZoxFGYWC8KV6RN61Udp5CYTqF817paiEwrNXGVFR5TgWl8Dc8ymkjSiTMFAZzY6Dk1ECfgGFukHcxjAJhe2b6hMVHtURVUDFB6pvFFWQSYhKqhpIo3JXch7DPkWlK6FsQmHlt6lWHks0ovIZ8KE2lLyTyCM0h6lKwAiXs3IKqzRbwoBPJxtpFyIUVp9q0KjNd4UbJWk21wI+Rf1kSCCz0PymW6Comv0jKqzFIdGpHhdBH0pg9my+WKEwfF/rIaOVyCKQ6CS7UPpM30vGnqsShKiovgWLql0jcyPR53dzGOKhPv6NrYDmFaL5xmvUqMH53YxViT43u0PZi/jUz195bjKXEBlhxGgqF8sdoFWax++Wi4jO9MHEZ59chJg8usq7GVnbI5m42R1GZ9a/15y+AoTI+BkY5QSVisM0CTGs5MRs97hcQIwOKvr6LbevECEaj3+pRjyRNlODi/ny8W63m838HfLo37u7x+VyjhIXrXeuz1Dfc7QvfhQiRAPyB6jqeKQDtSGK8zBLS5Q56VOVB9ohdkIUJESxf1HTkOSBeMY75RQpJYoTokHA5svIizR5XwXUPj+KFAomEmXSYFQquoGyt6F69XV2FCw0Y/X8ZFArLd3Tc3GF04sShCiG+4cvdU3INHFr9elhX3DynChHaMV28/z0qqJCi6BKnIp+phsG+v/Xp+dNQe0mLkoUWjFc/Xp4fnmDJiUcBnx7eX74tSonc36ULfRivN2u9vuNGfv9artlng3RBjdhZfFb2Pz4LWx+HL/wf+Zoe2WMDnOdAAAAAElFTkSuQmCC;" vertex="1" parent="1">
          <mxGeometry x="260" y="315" width="45" height="45" as="geometry" />
        </mxCell>
        <mxCell id="2w82Q_bAyuArWZJhEHWo-4" value="" style="shape=image;imageAspect=0;aspect=fixed;verticalLabelPosition=bottom;verticalAlign=top;fillColor=#FFD966;image=data:image/png,iVBORw0KGgoAAAANSUhEUgAAAQAAAAEACAMAAABrrFhUAAAAA3NCSVQICAjb4U/gAAAApVBMVEVHcEw/KRyMcEtDLCFDKyBxhU4/KBxWdDJERyVDKyFCLCBCKh5DKyBBKh6OcUw/KhxDKx+OcExPo0xNokhCKx9CKx9Qo0xRpUxBKR2QdVONb0uNcExInUmNb0yOcU5PpEtPpEuOcExMoElXq0+ehmOmo4VTqE1qpF6mooWOcEynooRYqlBJnUpFLSKPck6UdlFHLyNasFJLokyopYZSpU5WqU+IpHH0hyOQAAAAK3RSTlMAFET58BQgBAvhqHO2VoUy1L68KZLE2p5CK2Dl86nzWkLNdvL2zYX9oN1jmot5qQAAAF96VFh0UmF3IHByb2ZpbGUgdHlwZSBBUFAxAAAImeNKT81LLcpMVigoyk/LzEnlUgADYxMuE0sTS6NEAwMDCwMIMDQwMDYEkkZAtjlUKNEABZiYm6UBoblZspkpiM8FAE+6FWgbLdiMAAAKo0lEQVR4nO2de3uaShCHQZEF8YIJpGqi0fZJc5KIoabJ9/9oZ4bLcpFd+/SE0jPM748+BFaz8zK3XYk1DBaLxWKxWCwWi8VisVgsFovFYrFYLBaLxWKxWCwWi8VisdqSc931DDrW9deuZ9CxdjejrqfQrb7+uO96Cp3KuXm5cbqeRJf6/uPnqc8ucP/t5f3UYxcA+1/eD6e+FgLx/eUHAjjc9bMXEF/A/ATA6Up0PZkO5KT2I4DD6UvXs/nzyu4/6AQEDr1LA4X9KYDeESjszwD0jMD3wv4MwOnQo35I3L+81AFAMewPgd23JgCnu13XE/tDur750QTgcLjpR0Mkrir2lwCc+rE38L1qfwnA4a4PLWE1AVQB9GFdNLr5oQNAPxF+qdtfAQBpgHgivK+bXwNAfWV4HgAvLz8PVZFOA/UK0ADgjvL2yHW9AjR5wOmq62m2p/MM2ADgQHdZdNYCNAOg2xBeNTlAgwdQbYd2L78IgOo2cbMDNAGguUmqcIAmADRdoLEEKABQdIHGHkAFgKILNDWBagD0XMC5UdjfDICcC4idyn4FAHK9gCoFKgEQe2pgpEqBKgAHYg+O3CsdQAmA1M6IUEeACgCtNKiJACUAUmlQEwFqAJRiQNkFaQBQigHRsBd6GQChGFCuA/QA6MSALgWoARwOZGJAUwR1AMjEQP0D8V8GQCUGtClAFwJUtofVK8ELAA67rqf+OdLmQB0AIklA6NogvQcQSQLaHKgFQGNTQNsH6gHQ6ARGyu3AywAo7IoIfRXUAqCRBXfaCNADILE7rq+CegAkHpb4+l8AUKiD+jZAnwRJ1EHtWvACgDsKqwEGoAfwrgVAoRPSd8IMgAEwAAZAHEDvq0DvAVxohfUAKDRCFxZDWgAk1gIXlsP0Aeg/FtADILEcvrAlpgNAY0dI/YzkZQDfu578p0jfCWlDgMKu8KU6qAWw63runyJ9GdABINEGXMqCagCnuxsKReDSZ2MaD6BRBC59PKwDQCMHXkgCuhxAYSmE0j0pqwNAohFOpFsRa5IgkRSAXxz0WwCItEEoXQyoAVB5SAyliQElADoRYGiXxOqPxnZdz/oTpXlYVAmATg1AqdOg8g8maCyFc6mflOrF3wwZmq1R5V+NdT3jT1bTN+hoPWDX9Yw/WyoXUPzlKInt0IpULqAAsOt6vp+vhq/RUgIg6ADKXuDUBIBeBkA1b401ASDVBZfUuDPUAOBErQfINWoKgiYAJJ6RblLDl2k1LAZPV6RWARU1BMG5B1D+Xk3nPAjOv0yNbACgruvt0OP59wkSbAEKiXoaeHys2U/9a1Vra4L3jxoAygkgVfX7ROoAaCeAVJVE+P7xUbH/C+kEkKnSD1UAEE+AuURRCt5f3j7K9tPtgKoqFcO3t5+F/YQ+CbmgnMD749vbYw/tFzIKAMBH/+xHXSeZ8P3jLYuB05d+2W+ItBYggMQFelH/qkr+t7E31GOf/o+dksTXb49vKYFd13PpSLuPFMBz1xPpTA+J/Q/9i/9czz13ALFKAKy6nkd3cjAGHnrWAVT00O8UYBj/IICuJ9GlnhnA29s/XU+iS636DmDUcwBi9NBvAAYD6DsA8dDvMij6DsAQzw/9boXBB1bPvQaACLqeAYvFYrFYLBbrL9RqVtV6VeobB7VL3U2zPW1eqzpu97PcULGvXdoMOp1rGxKr9Wx/BO3Xg/V6tti+Ho+vtzMhL97Cte1sPds8wcHrdt3xfFvRCo3MLFvNbhHBRsbBGn7a44GzvkU2JMNgATZL514tKgQG8MMiO9zC8ayD+bUtUQFgOBskkPt6CQDkCyDzx6fXvmoAjNEefs59vQxg3RMAYnAsfL0OoP0QSPdvHPlQrzDPNnQc26498ytsHGTP7fpYxzx/OhheblZeXAOA5Q8yX/pWZQCz2rgWZM69cGk407HvTqZ4Yh74rh/Y5SHexLUsuCwtM5feJHSM5cQdWvDqQvA+ruuG3hyGzqfynA8vD73iPc8BwK0+btMYKAEYPb2WykMLMgMwIY7m8zCO4yiOPMMOhngU+3K2wnNjy3fhXDxJT3ohvAhGjPFFUTycyveb+rE/DmHo0J+E1jg5twzjyPfhBbErB54BMJIYGMjDBIBYbV63s1afNjfHFpgwHFvWZOLikefHbuhHYNYkA++AmYHtmGhH7CYEPBwauW6MVsKhm8Pyothz4I5b+AZx7CXnhnE4d5x5AOckqnMAq62sAwhguwDtoUfatP2sjY0TszyIZDPA2+lPTSe1YJ4OCOJ4nJPIsTgeDvCXjiHmyMVLhy7B1uS6B+80CaYiPeen4e9FBapzAM6tzIIIIBG0wsfjU7suAJE6jKL0xjhw591ksmI6zKwScNnKZm26UT7UABhDOx1gRRkhA30lH5kdOX6c48HXZGdVAAoP2A9Wq8F6k/SIi3adACwcZjcbbpyb4nbc3CowKsyzEFwvbI2s9MaKMB8BADNjxSR3m2kk+eFvit3sRRcAYBLE2rTaVLvkNoQA0jwupmBV5m9gwSQ3aiyHguP76YACAB6mJ2153/Hl6RGElZsXQECVB1ZzDtjKJCjLoEAC7RbCAkByu2oAbEsalcaI1QQg9Rt09zRHoFekEQTv48sYxiSTsW6sArej/FACSMAcW+0FSwCW5wDQbaUHwNlGALErT6bRZFtZvXDCkgckuVEFYFb0vBUA2CEd959jarP0ANADZA5AAK7aA9CDIn+e1os0WQpEJjsKDQCxLzx9XQaAy6E/BUA0ADBlZcjOZjQaPUBAyYytceAXLQ9mftn+eHnpOAeQLHoy0FUAi7aXQ3oPwJseyfbFlwmh0QOgaYQR8GNQvulFCAGfMENVXw0+FYvBKgC8sm11S0RZBYL8nIwBiIe8Yk6aPMDAbidYzkudC7xExgBmxKwnSNY+xV7XCHhsJQ+5I5T/0O56uNQHTIt7KeuY6YMLZNP2YlkRwoYyCO81iYflVVQSFdA+ppfnVu4AyX19XeSgBvvX19vCH0rrImNw23oj5EkfF57MWElFyzLbEJcIeDy18nNY8nO/MZHFMvERE9cIfuBNp8t5njdsBDjGd7XD2M1Ij9bHbFd0BQ3fBlr+hfTy0QDDA67hpVnbqwHhhWBf7AZT6O/H2OC74yUsf3E5BKYk8wW7YYkQeJMoCrJbGeLIyAo9w5xgfwyLP3QSzPnJKgiQZGtrGOzjOnAM7w6LovSXbm5lr7/d4r+LgSw0M7jl6bXtdguX9utW20AnHFqwfodbi7UbjpO+Z56chLOpDfNxsha2xvnCfxkN0+sBvCoZ6g6T2LDHw9T+BEoWOAlOWCCH+XbC6um20NNiU/5gxNnsQdm1/WY2aPlZG+HYJso2DWHbcGzjzo9IT5pyE8hcglcXWzq4v5Ndrw2F0AjH4wms/qOifApnPp1Oi50jMSoLTpeNFCAnu/RX/d35r9wJsXRdzAaA1SutHD//F/2t8iwry3JCLK3fBPA/1nJYWjZgoVyqx5JUULQJBgLw/6oY/gMKio4o6Xo83WCKwq55nGV+6HqC/3M6+y1hHxT73ty2554bB30LAAP7IGyAIsvCzeWuJ9OJ0v10aIE88/JgFovFYrFYLBaLxWKxWCwWi8VisVgsFovFYrFYLBbrd/UvBH44yvKMDM0AAAAASUVORK5CYII=;fontStyle=1" vertex="1" parent="1">
          <mxGeometry x="720" y="212" width="66" height="66" as="geometry" />
        </mxCell>
        <mxCell id="2w82Q_bAyuArWZJhEHWo-5" value="" style="shape=image;imageAspect=0;aspect=fixed;verticalLabelPosition=bottom;verticalAlign=top;fillColor=#FFD966;image=data:image/png,iVBORw0KGgoAAAANSUhEUgAAAQAAAAEACAMAAABrrFhUAAAAA3NCSVQICAjb4U/gAAAApVBMVEVHcEw/KRyMcEtDLCFDKyBxhU4/KBxWdDJERyVDKyFCLCBCKh5DKyBBKh6OcUw/KhxDKx+OcExPo0xNokhCKx9CKx9Qo0xRpUxBKR2QdVONb0uNcExInUmNb0yOcU5PpEtPpEuOcExMoElXq0+ehmOmo4VTqE1qpF6mooWOcEynooRYqlBJnUpFLSKPck6UdlFHLyNasFJLokyopYZSpU5WqU+IpHH0hyOQAAAAK3RSTlMAFET58BQgBAvhqHO2VoUy1L68KZLE2p5CK2Dl86nzWkLNdvL2zYX9oN1jmot5qQAAAF96VFh0UmF3IHByb2ZpbGUgdHlwZSBBUFAxAAAImeNKT81LLcpMVigoyk/LzEnlUgADYxMuE0sTS6NEAwMDCwMIMDQwMDYEkkZAtjlUKNEABZiYm6UBoblZspkpiM8FAE+6FWgbLdiMAAAKo0lEQVR4nO2de3uaShCHQZEF8YIJpGqi0fZJc5KIoabJ9/9oZ4bLcpFd+/SE0jPM748+BFaz8zK3XYk1DBaLxWKxWCwWi8VisVgsFovFYrFYLBaLxWKxWCwWi8VisdqSc931DDrW9deuZ9CxdjejrqfQrb7+uO96Cp3KuXm5cbqeRJf6/uPnqc8ucP/t5f3UYxcA+1/eD6e+FgLx/eUHAjjc9bMXEF/A/ATA6Up0PZkO5KT2I4DD6UvXs/nzyu4/6AQEDr1LA4X9KYDeESjszwD0jMD3wv4MwOnQo35I3L+81AFAMewPgd23JgCnu13XE/tDur750QTgcLjpR0Mkrir2lwCc+rE38L1qfwnA4a4PLWE1AVQB9GFdNLr5oQNAPxF+qdtfAQBpgHgivK+bXwNAfWV4HgAvLz8PVZFOA/UK0ADgjvL2yHW9AjR5wOmq62m2p/MM2ADgQHdZdNYCNAOg2xBeNTlAgwdQbYd2L78IgOo2cbMDNAGguUmqcIAmADRdoLEEKABQdIHGHkAFgKILNDWBagD0XMC5UdjfDICcC4idyn4FAHK9gCoFKgEQe2pgpEqBKgAHYg+O3CsdQAmA1M6IUEeACgCtNKiJACUAUmlQEwFqAJRiQNkFaQBQigHRsBd6GQChGFCuA/QA6MSALgWoARwOZGJAUwR1AMjEQP0D8V8GQCUGtClAFwJUtofVK8ELAA67rqf+OdLmQB0AIklA6NogvQcQSQLaHKgFQGNTQNsH6gHQ6ARGyu3AywAo7IoIfRXUAqCRBXfaCNADILE7rq+CegAkHpb4+l8AUKiD+jZAnwRJ1EHtWvACgDsKqwEGoAfwrgVAoRPSd8IMgAEwAAZAHEDvq0DvAVxohfUAKDRCFxZDWgAk1gIXlsP0Aeg/FtADILEcvrAlpgNAY0dI/YzkZQDfu578p0jfCWlDgMKu8KU6qAWw63runyJ9GdABINEGXMqCagCnuxsKReDSZ2MaD6BRBC59PKwDQCMHXkgCuhxAYSmE0j0pqwNAohFOpFsRa5IgkRSAXxz0WwCItEEoXQyoAVB5SAyliQElADoRYGiXxOqPxnZdz/oTpXlYVAmATg1AqdOg8g8maCyFc6mflOrF3wwZmq1R5V+NdT3jT1bTN+hoPWDX9Yw/WyoXUPzlKInt0IpULqAAsOt6vp+vhq/RUgIg6ADKXuDUBIBeBkA1b401ASDVBZfUuDPUAOBErQfINWoKgiYAJJ6RblLDl2k1LAZPV6RWARU1BMG5B1D+Xk3nPAjOv0yNbACgruvt0OP59wkSbAEKiXoaeHys2U/9a1Vra4L3jxoAygkgVfX7ROoAaCeAVJVE+P7xUbH/C+kEkKnSD1UAEE+AuURRCt5f3j7K9tPtgKoqFcO3t5+F/YQ+CbmgnMD749vbYw/tFzIKAMBH/+xHXSeZ8P3jLYuB05d+2W+ItBYggMQFelH/qkr+t7E31GOf/o+dksTXb49vKYFd13PpSLuPFMBz1xPpTA+J/Q/9i/9czz13ALFKAKy6nkd3cjAGHnrWAVT00O8UYBj/IICuJ9GlnhnA29s/XU+iS636DmDUcwBi9NBvAAYD6DsA8dDvMij6DsAQzw/9boXBB1bPvQaACLqeAYvFYrFYLBbrL9RqVtV6VeobB7VL3U2zPW1eqzpu97PcULGvXdoMOp1rGxKr9Wx/BO3Xg/V6tti+Ho+vtzMhL97Cte1sPds8wcHrdt3xfFvRCo3MLFvNbhHBRsbBGn7a44GzvkU2JMNgATZL514tKgQG8MMiO9zC8ayD+bUtUQFgOBskkPt6CQDkCyDzx6fXvmoAjNEefs59vQxg3RMAYnAsfL0OoP0QSPdvHPlQrzDPNnQc26498ytsHGTP7fpYxzx/OhheblZeXAOA5Q8yX/pWZQCz2rgWZM69cGk407HvTqZ4Yh74rh/Y5SHexLUsuCwtM5feJHSM5cQdWvDqQvA+ruuG3hyGzqfynA8vD73iPc8BwK0+btMYKAEYPb2WykMLMgMwIY7m8zCO4yiOPMMOhngU+3K2wnNjy3fhXDxJT3ohvAhGjPFFUTycyveb+rE/DmHo0J+E1jg5twzjyPfhBbErB54BMJIYGMjDBIBYbV63s1afNjfHFpgwHFvWZOLikefHbuhHYNYkA++AmYHtmGhH7CYEPBwauW6MVsKhm8Pyothz4I5b+AZx7CXnhnE4d5x5AOckqnMAq62sAwhguwDtoUfatP2sjY0TszyIZDPA2+lPTSe1YJ4OCOJ4nJPIsTgeDvCXjiHmyMVLhy7B1uS6B+80CaYiPeen4e9FBapzAM6tzIIIIBG0wsfjU7suAJE6jKL0xjhw591ksmI6zKwScNnKZm26UT7UABhDOx1gRRkhA30lH5kdOX6c48HXZGdVAAoP2A9Wq8F6k/SIi3adACwcZjcbbpyb4nbc3CowKsyzEFwvbI2s9MaKMB8BADNjxSR3m2kk+eFvit3sRRcAYBLE2rTaVLvkNoQA0jwupmBV5m9gwSQ3aiyHguP76YACAB6mJ2153/Hl6RGElZsXQECVB1ZzDtjKJCjLoEAC7RbCAkByu2oAbEsalcaI1QQg9Rt09zRHoFekEQTv48sYxiSTsW6sArej/FACSMAcW+0FSwCW5wDQbaUHwNlGALErT6bRZFtZvXDCkgckuVEFYFb0vBUA2CEd959jarP0ANADZA5AAK7aA9CDIn+e1os0WQpEJjsKDQCxLzx9XQaAy6E/BUA0ADBlZcjOZjQaPUBAyYytceAXLQ9mftn+eHnpOAeQLHoy0FUAi7aXQ3oPwJseyfbFlwmh0QOgaYQR8GNQvulFCAGfMENVXw0+FYvBKgC8sm11S0RZBYL8nIwBiIe8Yk6aPMDAbidYzkudC7xExgBmxKwnSNY+xV7XCHhsJQ+5I5T/0O56uNQHTIt7KeuY6YMLZNP2YlkRwoYyCO81iYflVVQSFdA+ppfnVu4AyX19XeSgBvvX19vCH0rrImNw23oj5EkfF57MWElFyzLbEJcIeDy18nNY8nO/MZHFMvERE9cIfuBNp8t5njdsBDjGd7XD2M1Ij9bHbFd0BQ3fBlr+hfTy0QDDA67hpVnbqwHhhWBf7AZT6O/H2OC74yUsf3E5BKYk8wW7YYkQeJMoCrJbGeLIyAo9w5xgfwyLP3QSzPnJKgiQZGtrGOzjOnAM7w6LovSXbm5lr7/d4r+LgSw0M7jl6bXtdguX9utW20AnHFqwfodbi7UbjpO+Z56chLOpDfNxsha2xvnCfxkN0+sBvCoZ6g6T2LDHw9T+BEoWOAlOWCCH+XbC6um20NNiU/5gxNnsQdm1/WY2aPlZG+HYJso2DWHbcGzjzo9IT5pyE8hcglcXWzq4v5Ndrw2F0AjH4wms/qOifApnPp1Oi50jMSoLTpeNFCAnu/RX/d35r9wJsXRdzAaA1SutHD//F/2t8iwry3JCLK3fBPA/1nJYWjZgoVyqx5JUULQJBgLw/6oY/gMKio4o6Xo83WCKwq55nGV+6HqC/3M6+y1hHxT73ty2554bB30LAAP7IGyAIsvCzeWuJ9OJ0v10aIE88/JgFovFYrFYLBaLxWKxWCwWi8VisVgsFovFYrFYLBbrd/UvBH44yvKMDM0AAAAASUVORK5CYII=;fontStyle=1" vertex="1" parent="1">
          <mxGeometry x="720" y="294" width="66" height="66" as="geometry" />
        </mxCell>
        <mxCell id="2w82Q_bAyuArWZJhEHWo-6" value="" style="shape=image;imageAspect=0;aspect=fixed;verticalLabelPosition=bottom;verticalAlign=top;fillColor=#FFD966;image=data:image/png,iVBORw0KGgoAAAANSUhEUgAAAQAAAAEACAMAAABrrFhUAAAAA3NCSVQICAjb4U/gAAAApVBMVEVHcEw/KRyMcEtDLCFDKyBxhU4/KBxWdDJERyVDKyFCLCBCKh5DKyBBKh6OcUw/KhxDKx+OcExPo0xNokhCKx9CKx9Qo0xRpUxBKR2QdVONb0uNcExInUmNb0yOcU5PpEtPpEuOcExMoElXq0+ehmOmo4VTqE1qpF6mooWOcEynooRYqlBJnUpFLSKPck6UdlFHLyNasFJLokyopYZSpU5WqU+IpHH0hyOQAAAAK3RSTlMAFET58BQgBAvhqHO2VoUy1L68KZLE2p5CK2Dl86nzWkLNdvL2zYX9oN1jmot5qQAAAF96VFh0UmF3IHByb2ZpbGUgdHlwZSBBUFAxAAAImeNKT81LLcpMVigoyk/LzEnlUgADYxMuE0sTS6NEAwMDCwMIMDQwMDYEkkZAtjlUKNEABZiYm6UBoblZspkpiM8FAE+6FWgbLdiMAAAKo0lEQVR4nO2de3uaShCHQZEF8YIJpGqi0fZJc5KIoabJ9/9oZ4bLcpFd+/SE0jPM748+BFaz8zK3XYk1DBaLxWKxWCwWi8VisVgsFovFYrFYLBaLxWKxWCwWi8VisdqSc931DDrW9deuZ9CxdjejrqfQrb7+uO96Cp3KuXm5cbqeRJf6/uPnqc8ucP/t5f3UYxcA+1/eD6e+FgLx/eUHAjjc9bMXEF/A/ATA6Up0PZkO5KT2I4DD6UvXs/nzyu4/6AQEDr1LA4X9KYDeESjszwD0jMD3wv4MwOnQo35I3L+81AFAMewPgd23JgCnu13XE/tDur750QTgcLjpR0Mkrir2lwCc+rE38L1qfwnA4a4PLWE1AVQB9GFdNLr5oQNAPxF+qdtfAQBpgHgivK+bXwNAfWV4HgAvLz8PVZFOA/UK0ADgjvL2yHW9AjR5wOmq62m2p/MM2ADgQHdZdNYCNAOg2xBeNTlAgwdQbYd2L78IgOo2cbMDNAGguUmqcIAmADRdoLEEKABQdIHGHkAFgKILNDWBagD0XMC5UdjfDICcC4idyn4FAHK9gCoFKgEQe2pgpEqBKgAHYg+O3CsdQAmA1M6IUEeACgCtNKiJACUAUmlQEwFqAJRiQNkFaQBQigHRsBd6GQChGFCuA/QA6MSALgWoARwOZGJAUwR1AMjEQP0D8V8GQCUGtClAFwJUtofVK8ELAA67rqf+OdLmQB0AIklA6NogvQcQSQLaHKgFQGNTQNsH6gHQ6ARGyu3AywAo7IoIfRXUAqCRBXfaCNADILE7rq+CegAkHpb4+l8AUKiD+jZAnwRJ1EHtWvACgDsKqwEGoAfwrgVAoRPSd8IMgAEwAAZAHEDvq0DvAVxohfUAKDRCFxZDWgAk1gIXlsP0Aeg/FtADILEcvrAlpgNAY0dI/YzkZQDfu578p0jfCWlDgMKu8KU6qAWw63runyJ9GdABINEGXMqCagCnuxsKReDSZ2MaD6BRBC59PKwDQCMHXkgCuhxAYSmE0j0pqwNAohFOpFsRa5IgkRSAXxz0WwCItEEoXQyoAVB5SAyliQElADoRYGiXxOqPxnZdz/oTpXlYVAmATg1AqdOg8g8maCyFc6mflOrF3wwZmq1R5V+NdT3jT1bTN+hoPWDX9Yw/WyoXUPzlKInt0IpULqAAsOt6vp+vhq/RUgIg6ADKXuDUBIBeBkA1b401ASDVBZfUuDPUAOBErQfINWoKgiYAJJ6RblLDl2k1LAZPV6RWARU1BMG5B1D+Xk3nPAjOv0yNbACgruvt0OP59wkSbAEKiXoaeHys2U/9a1Vra4L3jxoAygkgVfX7ROoAaCeAVJVE+P7xUbH/C+kEkKnSD1UAEE+AuURRCt5f3j7K9tPtgKoqFcO3t5+F/YQ+CbmgnMD749vbYw/tFzIKAMBH/+xHXSeZ8P3jLYuB05d+2W+ItBYggMQFelH/qkr+t7E31GOf/o+dksTXb49vKYFd13PpSLuPFMBz1xPpTA+J/Q/9i/9czz13ALFKAKy6nkd3cjAGHnrWAVT00O8UYBj/IICuJ9GlnhnA29s/XU+iS636DmDUcwBi9NBvAAYD6DsA8dDvMij6DsAQzw/9boXBB1bPvQaACLqeAYvFYrFYLBbrL9RqVtV6VeobB7VL3U2zPW1eqzpu97PcULGvXdoMOp1rGxKr9Wx/BO3Xg/V6tti+Ho+vtzMhL97Cte1sPds8wcHrdt3xfFvRCo3MLFvNbhHBRsbBGn7a44GzvkU2JMNgATZL514tKgQG8MMiO9zC8ayD+bUtUQFgOBskkPt6CQDkCyDzx6fXvmoAjNEefs59vQxg3RMAYnAsfL0OoP0QSPdvHPlQrzDPNnQc26498ytsHGTP7fpYxzx/OhheblZeXAOA5Q8yX/pWZQCz2rgWZM69cGk407HvTqZ4Yh74rh/Y5SHexLUsuCwtM5feJHSM5cQdWvDqQvA+ruuG3hyGzqfynA8vD73iPc8BwK0+btMYKAEYPb2WykMLMgMwIY7m8zCO4yiOPMMOhngU+3K2wnNjy3fhXDxJT3ohvAhGjPFFUTycyveb+rE/DmHo0J+E1jg5twzjyPfhBbErB54BMJIYGMjDBIBYbV63s1afNjfHFpgwHFvWZOLikefHbuhHYNYkA++AmYHtmGhH7CYEPBwauW6MVsKhm8Pyothz4I5b+AZx7CXnhnE4d5x5AOckqnMAq62sAwhguwDtoUfatP2sjY0TszyIZDPA2+lPTSe1YJ4OCOJ4nJPIsTgeDvCXjiHmyMVLhy7B1uS6B+80CaYiPeen4e9FBapzAM6tzIIIIBG0wsfjU7suAJE6jKL0xjhw591ksmI6zKwScNnKZm26UT7UABhDOx1gRRkhA30lH5kdOX6c48HXZGdVAAoP2A9Wq8F6k/SIi3adACwcZjcbbpyb4nbc3CowKsyzEFwvbI2s9MaKMB8BADNjxSR3m2kk+eFvit3sRRcAYBLE2rTaVLvkNoQA0jwupmBV5m9gwSQ3aiyHguP76YACAB6mJ2153/Hl6RGElZsXQECVB1ZzDtjKJCjLoEAC7RbCAkByu2oAbEsalcaI1QQg9Rt09zRHoFekEQTv48sYxiSTsW6sArej/FACSMAcW+0FSwCW5wDQbaUHwNlGALErT6bRZFtZvXDCkgckuVEFYFb0vBUA2CEd959jarP0ANADZA5AAK7aA9CDIn+e1os0WQpEJjsKDQCxLzx9XQaAy6E/BUA0ADBlZcjOZjQaPUBAyYytceAXLQ9mftn+eHnpOAeQLHoy0FUAi7aXQ3oPwJseyfbFlwmh0QOgaYQR8GNQvulFCAGfMENVXw0+FYvBKgC8sm11S0RZBYL8nIwBiIe8Yk6aPMDAbidYzkudC7xExgBmxKwnSNY+xV7XCHhsJQ+5I5T/0O56uNQHTIt7KeuY6YMLZNP2YlkRwoYyCO81iYflVVQSFdA+ppfnVu4AyX19XeSgBvvX19vCH0rrImNw23oj5EkfF57MWElFyzLbEJcIeDy18nNY8nO/MZHFMvERE9cIfuBNp8t5njdsBDjGd7XD2M1Ij9bHbFd0BQ3fBlr+hfTy0QDDA67hpVnbqwHhhWBf7AZT6O/H2OC74yUsf3E5BKYk8wW7YYkQeJMoCrJbGeLIyAo9w5xgfwyLP3QSzPnJKgiQZGtrGOzjOnAM7w6LovSXbm5lr7/d4r+LgSw0M7jl6bXtdguX9utW20AnHFqwfodbi7UbjpO+Z56chLOpDfNxsha2xvnCfxkN0+sBvCoZ6g6T2LDHw9T+BEoWOAlOWCCH+XbC6um20NNiU/5gxNnsQdm1/WY2aPlZG+HYJso2DWHbcGzjzo9IT5pyE8hcglcXWzq4v5Ndrw2F0AjH4wms/qOifApnPp1Oi50jMSoLTpeNFCAnu/RX/d35r9wJsXRdzAaA1SutHD//F/2t8iwry3JCLK3fBPA/1nJYWjZgoVyqx5JUULQJBgLw/6oY/gMKio4o6Xo83WCKwq55nGV+6HqC/3M6+y1hHxT73ty2554bB30LAAP7IGyAIsvCzeWuJ9OJ0v10aIE88/JgFovFYrFYLBaLxWKxWCwWi8VisVgsFovFYrFYLBbrd/UvBH44yvKMDM0AAAAASUVORK5CYII=;fontStyle=0" vertex="1" parent="1">
          <mxGeometry x="720" y="358" width="66" height="66" as="geometry" />
        </mxCell>
        <mxCell id="2w82Q_bAyuArWZJhEHWo-7" value="" style="shape=image;imageAspect=0;aspect=fixed;verticalLabelPosition=bottom;verticalAlign=top;fillColor=#FFD966;image=data:image/png,iVBORw0KGgoAAAANSUhEUgAAAQAAAAEACAMAAABrrFhUAAAAA3NCSVQICAjb4U/gAAAApVBMVEVHcEw/KRyMcEtDLCFDKyBxhU4/KBxWdDJERyVDKyFCLCBCKh5DKyBBKh6OcUw/KhxDKx+OcExPo0xNokhCKx9CKx9Qo0xRpUxBKR2QdVONb0uNcExInUmNb0yOcU5PpEtPpEuOcExMoElXq0+ehmOmo4VTqE1qpF6mooWOcEynooRYqlBJnUpFLSKPck6UdlFHLyNasFJLokyopYZSpU5WqU+IpHH0hyOQAAAAK3RSTlMAFET58BQgBAvhqHO2VoUy1L68KZLE2p5CK2Dl86nzWkLNdvL2zYX9oN1jmot5qQAAAF96VFh0UmF3IHByb2ZpbGUgdHlwZSBBUFAxAAAImeNKT81LLcpMVigoyk/LzEnlUgADYxMuE0sTS6NEAwMDCwMIMDQwMDYEkkZAtjlUKNEABZiYm6UBoblZspkpiM8FAE+6FWgbLdiMAAAKo0lEQVR4nO2de3uaShCHQZEF8YIJpGqi0fZJc5KIoabJ9/9oZ4bLcpFd+/SE0jPM748+BFaz8zK3XYk1DBaLxWKxWCwWi8VisVgsFovFYrFYLBaLxWKxWCwWi8VisdqSc931DDrW9deuZ9CxdjejrqfQrb7+uO96Cp3KuXm5cbqeRJf6/uPnqc8ucP/t5f3UYxcA+1/eD6e+FgLx/eUHAjjc9bMXEF/A/ATA6Up0PZkO5KT2I4DD6UvXs/nzyu4/6AQEDr1LA4X9KYDeESjszwD0jMD3wv4MwOnQo35I3L+81AFAMewPgd23JgCnu13XE/tDur750QTgcLjpR0Mkrir2lwCc+rE38L1qfwnA4a4PLWE1AVQB9GFdNLr5oQNAPxF+qdtfAQBpgHgivK+bXwNAfWV4HgAvLz8PVZFOA/UK0ADgjvL2yHW9AjR5wOmq62m2p/MM2ADgQHdZdNYCNAOg2xBeNTlAgwdQbYd2L78IgOo2cbMDNAGguUmqcIAmADRdoLEEKABQdIHGHkAFgKILNDWBagD0XMC5UdjfDICcC4idyn4FAHK9gCoFKgEQe2pgpEqBKgAHYg+O3CsdQAmA1M6IUEeACgCtNKiJACUAUmlQEwFqAJRiQNkFaQBQigHRsBd6GQChGFCuA/QA6MSALgWoARwOZGJAUwR1AMjEQP0D8V8GQCUGtClAFwJUtofVK8ELAA67rqf+OdLmQB0AIklA6NogvQcQSQLaHKgFQGNTQNsH6gHQ6ARGyu3AywAo7IoIfRXUAqCRBXfaCNADILE7rq+CegAkHpb4+l8AUKiD+jZAnwRJ1EHtWvACgDsKqwEGoAfwrgVAoRPSd8IMgAEwAAZAHEDvq0DvAVxohfUAKDRCFxZDWgAk1gIXlsP0Aeg/FtADILEcvrAlpgNAY0dI/YzkZQDfu578p0jfCWlDgMKu8KU6qAWw63runyJ9GdABINEGXMqCagCnuxsKReDSZ2MaD6BRBC59PKwDQCMHXkgCuhxAYSmE0j0pqwNAohFOpFsRa5IgkRSAXxz0WwCItEEoXQyoAVB5SAyliQElADoRYGiXxOqPxnZdz/oTpXlYVAmATg1AqdOg8g8maCyFc6mflOrF3wwZmq1R5V+NdT3jT1bTN+hoPWDX9Yw/WyoXUPzlKInt0IpULqAAsOt6vp+vhq/RUgIg6ADKXuDUBIBeBkA1b401ASDVBZfUuDPUAOBErQfINWoKgiYAJJ6RblLDl2k1LAZPV6RWARU1BMG5B1D+Xk3nPAjOv0yNbACgruvt0OP59wkSbAEKiXoaeHys2U/9a1Vra4L3jxoAygkgVfX7ROoAaCeAVJVE+P7xUbH/C+kEkKnSD1UAEE+AuURRCt5f3j7K9tPtgKoqFcO3t5+F/YQ+CbmgnMD749vbYw/tFzIKAMBH/+xHXSeZ8P3jLYuB05d+2W+ItBYggMQFelH/qkr+t7E31GOf/o+dksTXb49vKYFd13PpSLuPFMBz1xPpTA+J/Q/9i/9czz13ALFKAKy6nkd3cjAGHnrWAVT00O8UYBj/IICuJ9GlnhnA29s/XU+iS636DmDUcwBi9NBvAAYD6DsA8dDvMij6DsAQzw/9boXBB1bPvQaACLqeAYvFYrFYLBbrL9RqVtV6VeobB7VL3U2zPW1eqzpu97PcULGvXdoMOp1rGxKr9Wx/BO3Xg/V6tti+Ho+vtzMhL97Cte1sPds8wcHrdt3xfFvRCo3MLFvNbhHBRsbBGn7a44GzvkU2JMNgATZL514tKgQG8MMiO9zC8ayD+bUtUQFgOBskkPt6CQDkCyDzx6fXvmoAjNEefs59vQxg3RMAYnAsfL0OoP0QSPdvHPlQrzDPNnQc26498ytsHGTP7fpYxzx/OhheblZeXAOA5Q8yX/pWZQCz2rgWZM69cGk407HvTqZ4Yh74rh/Y5SHexLUsuCwtM5feJHSM5cQdWvDqQvA+ruuG3hyGzqfynA8vD73iPc8BwK0+btMYKAEYPb2WykMLMgMwIY7m8zCO4yiOPMMOhngU+3K2wnNjy3fhXDxJT3ohvAhGjPFFUTycyveb+rE/DmHo0J+E1jg5twzjyPfhBbErB54BMJIYGMjDBIBYbV63s1afNjfHFpgwHFvWZOLikefHbuhHYNYkA++AmYHtmGhH7CYEPBwauW6MVsKhm8Pyothz4I5b+AZx7CXnhnE4d5x5AOckqnMAq62sAwhguwDtoUfatP2sjY0TszyIZDPA2+lPTSe1YJ4OCOJ4nJPIsTgeDvCXjiHmyMVLhy7B1uS6B+80CaYiPeen4e9FBapzAM6tzIIIIBG0wsfjU7suAJE6jKL0xjhw591ksmI6zKwScNnKZm26UT7UABhDOx1gRRkhA30lH5kdOX6c48HXZGdVAAoP2A9Wq8F6k/SIi3adACwcZjcbbpyb4nbc3CowKsyzEFwvbI2s9MaKMB8BADNjxSR3m2kk+eFvit3sRRcAYBLE2rTaVLvkNoQA0jwupmBV5m9gwSQ3aiyHguP76YACAB6mJ2153/Hl6RGElZsXQECVB1ZzDtjKJCjLoEAC7RbCAkByu2oAbEsalcaI1QQg9Rt09zRHoFekEQTv48sYxiSTsW6sArej/FACSMAcW+0FSwCW5wDQbaUHwNlGALErT6bRZFtZvXDCkgckuVEFYFb0vBUA2CEd959jarP0ANADZA5AAK7aA9CDIn+e1os0WQpEJjsKDQCxLzx9XQaAy6E/BUA0ADBlZcjOZjQaPUBAyYytceAXLQ9mftn+eHnpOAeQLHoy0FUAi7aXQ3oPwJseyfbFlwmh0QOgaYQR8GNQvulFCAGfMENVXw0+FYvBKgC8sm11S0RZBYL8nIwBiIe8Yk6aPMDAbidYzkudC7xExgBmxKwnSNY+xV7XCHhsJQ+5I5T/0O56uNQHTIt7KeuY6YMLZNP2YlkRwoYyCO81iYflVVQSFdA+ppfnVu4AyX19XeSgBvvX19vCH0rrImNw23oj5EkfF57MWElFyzLbEJcIeDy18nNY8nO/MZHFMvERE9cIfuBNp8t5njdsBDjGd7XD2M1Ij9bHbFd0BQ3fBlr+hfTy0QDDA67hpVnbqwHhhWBf7AZT6O/H2OC74yUsf3E5BKYk8wW7YYkQeJMoCrJbGeLIyAo9w5xgfwyLP3QSzPnJKgiQZGtrGOzjOnAM7w6LovSXbm5lr7/d4r+LgSw0M7jl6bXtdguX9utW20AnHFqwfodbi7UbjpO+Z56chLOpDfNxsha2xvnCfxkN0+sBvCoZ6g6T2LDHw9T+BEoWOAlOWCCH+XbC6um20NNiU/5gxNnsQdm1/WY2aPlZG+HYJso2DWHbcGzjzo9IT5pyE8hcglcXWzq4v5Ndrw2F0AjH4wms/qOifApnPp1Oi50jMSoLTpeNFCAnu/RX/d35r9wJsXRdzAaA1SutHD//F/2t8iwry3JCLK3fBPA/1nJYWjZgoVyqx5JUULQJBgLw/6oY/gMKio4o6Xo83WCKwq55nGV+6HqC/3M6+y1hHxT73ty2554bB30LAAP7IGyAIsvCzeWuJ9OJ0v10aIE88/JgFovFYrFYLBaLxWKxWCwWi8VisVgsFovFYrFYLBbrd/UvBH44yvKMDM0AAAAASUVORK5CYII=;fontStyle=1" vertex="1" parent="1">
          <mxGeometry x="720" y="432" width="66" height="66" as="geometry" />
        </mxCell>
      </root>
    </mxGraphModel>
  </diagram>
</mxfile>
